<svg width="284" height="284" viewBox="0 0 284 284" fill="none" xmlns="http://www.w3.org/2000/svg">
<g opacity="0.2" clip-path="url(#clip0_2234_8803)">
<path d="M159.097 0C80.5443 0 17 63.5443 17 142.097C17 220.456 80.5443 284.195 159.097 284.195C237.456 284.195 301.195 220.651 301.195 142.097C301 63.5443 237.456 0 159.097 0ZM159.097 275.034C85.6122 275.034 26.1613 215.583 26.1613 142.097C26.1613 68.6122 85.6122 9.16129 159.097 9.16129C232.583 9.16129 292.034 68.6122 292.034 142.097C292.034 215.388 232.388 275.034 159.097 275.034Z" fill="white"/>
<path d="M159.099 30.6025C97.6986 30.6025 47.7988 80.5023 47.7988 141.902C47.7988 203.303 97.6986 253.202 159.099 253.202C220.499 253.202 270.399 203.498 270.399 142.097C270.399 80.5023 220.499 30.6025 159.099 30.6025ZM159.099 236.244C107.055 236.244 64.757 193.946 64.757 141.902C64.757 89.8585 107.055 47.5607 159.099 47.5607C211.143 47.5607 253.441 89.8585 253.441 141.902C253.441 193.946 211.143 236.244 159.099 236.244Z" fill="white"/>
<path d="M159.098 79.5273C124.597 79.5273 96.5283 107.596 96.5283 142.097C96.5283 176.598 124.402 204.667 159.098 204.667C193.599 204.667 221.668 176.598 221.668 142.097C221.473 107.596 193.599 79.5273 159.098 79.5273ZM159.098 175.623C140.58 175.623 125.572 160.614 125.572 142.097C125.572 123.579 140.58 108.571 159.098 108.571C177.616 108.571 192.624 123.579 192.624 142.097C192.624 160.614 177.616 175.623 159.098 175.623Z" fill="white"/>
</g>
<defs>
<clipPath id="clip0_2234_8803">
<rect width="284" height="284" fill="white"/>
</clipPath>
</defs>
</svg>
